<svg clip-rule="evenodd" fill-rule="evenodd" height="310" image-rendering="optimizeQuality" shape-rendering="geometricPrecision" text-rendering="geometricPrecision" width="310" xmlns="http://www.w3.org/2000/svg"><path d="m105.5 27.5c-2.246.7096-4.58 1.2096-7 1.5.556.3826.8893.8826 1 1.5-.6667 0-1.3333 0-2 0 .2373-1.291-.096-2.291-1-3-6.636-7.4716-14.3027-13.6382-23-18.5-12.0778.07121-16.5778 5.9045-13.5 17.5 6.0896 6.6211 13.2562 11.6211 21.5 15 .3333.6667.6667 1.3333 1 2-.6098.891-.9431 1.891-1 3-.79 1.1085-1.29 2.4419-1.5 4-.6667-1.3333-1.3333-2.6667-2-4-2.1485 1.4774-3.4818 3.4774-4 6-.8159 1.3228-1.9826 1.9894-3.5 2 .7271-2.4538 1.7271-4.7872 3-7 1.9646-.4483 2.2979-1.4483 1-3-8.3821-5.0488-15.0488-11.7154-20-20-1.8662-7.7752.8004-13.6086 8-17.5 10.3014-5.52179 19.6347-4.18846 28 4 5.3577 5.2481 10.358 10.7481 15 16.5z" fill="#0a0908" opacity=".86"/><path d="m240.5 37.5c-4.392 3.0387-9.059 5.7054-14 8-1.236-2.149-2.236-4.4823-3-7 7.883-3.049 13.216-8.549 16-16.5-4.158-4.9211-9.491-8.0877-16-9.5-2.11.5544-4.11 1.3877-6 2.5-3.561 3.0726-7.228 5.9059-11 8.5-2.04-1.677-4.04-3.3437-6-5 6.005-5.1605 12.671-9.32721 20-12.5 12.537-2.48276 21.37 2.01724 26.5 13.5.903 7.1242-1.263 13.1242-6.5 18z" fill="#060605" opacity=".889"/><path d="m96.5 27.5c-3.1374 2.273-6.4708 4.4397-10 6.5-1.8887 2.3818-3.5553 4.8818-5 7.5-8.2438-3.3789-15.4104-8.3789-21.5-15-3.0778-11.5955 1.4222-17.42879 13.5-17.5 8.6973 4.8618 16.364 11.0284 23 18.5z" fill="#f8eed0"/><path d="m223.5 38.5c-3.083-2.8695-6.75-4.7029-11-5.5-3.165-2.5096-5.165-5.6763-6-9.5 3.772-2.5941 7.439-5.4274 11-8.5 1.89-1.1123 3.89-1.9456 6-2.5 6.509 1.4123 11.842 4.5789 16 9.5-2.784 7.951-8.117 13.451-16 16.5z" fill="#f8edcf"/><path d="m199.5 34.5c.214 1.6439-.12 3.1439-1 4.5-5.322 2.2082-10.655 4.2082-16 6 8.645.6655 14.311 5.1655 17 13.5-.376 1.8829-1.376 3.3829-3 4.5-6.974 2.6021-13.974 5.1021-21 7.5-4.629-.3083-8.296-2.3083-11-6 .333-.3333.667-.6667 1-1 4.82-1.0626 9.486-2.5626 14-4.5 2.692-1.8799 3.859-4.3799 3.5-7.5-1.377 2.2538-2.877 4.4205-4.5 6.5-3.92 1.3134-7.92 2.3134-12 3-2.767 1.0366-5.101 2.5366-7 4.5-4.679.1658-9.345-.0008-14-.5-2.344-.8372-4.344-2.1706-6-4-4.817-.7795-9.484-.2795-14 1.5-7.014-2.6637-14.014-2.6637-21 0 .149-1.052-.017-2.052-.5-3-1.648 1.217-3.481 2.0503-5.5 2.5-4.3333.3333-8.6667.6667-13 1-5.3385 2.6692-10.6718 5.3359-16 8-3.0807.6279-5.0807-.5388-6-3.5 2.8708-5.4809 7.2041-9.6476 13-12.5.7191-2.5562 2.3858-3.7229 5-3.5 0-1.6667 0-3.3333 0-5 .0569-1.109.3902-2.109 1-3 1.8031-1.9813 3.4697-4.148 5-6.5 1-.6667 2-.6667 3 0 .854 1.0217 1.854 1.8551 3 2.5 7.05-3.7662 14.383-6.9329 22-9.5 3.323-6.1169 8.489-8.6169 15.5-7.5 2.755.0252 5.422.3586 8 1 .743 1.9406.576 3.7739-.5 5.5-8.365 1.6114-16.698 3.2781-25 5-.833.8333-1.667 1.6667-2.5 2.5-.333 3.3333-.667 6.6667-1 10-4.97 3.3854-10.4704 5.7187-16.5 7-2.2277-.7186-4.061-2.052-5.5-4 .0275 1.9174.8608 3.584 2.5 5-1.8181 1.2742-3.4847 2.7742-5 4.5 2.5937.4493 4.5937-.5507 6-3 5.3333-1.6667 10.667-3.3333 16-5 4.257-3.4557 6.09-7.9557 5.5-13.5 7.377-4.9935 13.377-3.6601 18 4 .667-1 .667-2 0-3-1.353-1.1853-2.52-2.5186-3.5-4 4.327-1.3658 8.661-2.8658 13-4.5.923-2.0408 1.256-4.2075 1-6.5 5.088.6452 9.088-1.0215 12-5 5.685-.3034 11.352-.4701 17-.5-1.501 1.2515-3.168 2.2515-5 3-1.196.6543-1.196 1.1543 0 1.5 3.161-1.4131 6.161-3.0797 9-5 2.241 3.7486 5.074 7.082 8.5 10 2.449 3.6008 1.616 6.1008-2.5 7.5-7.812.1358-14.812 2.4691-21 7-1.893 2.9172-2.393 6.0838-1.5 9.5-.325-4.6644 1.508-8.1644 5.5-10.5 5.47-2.0797 11.137-3.413 17-4 7.6-3.8526 7.933-8.5193 1-14 2.803-.755 5.47-.4217 8 1 4.076 2.8546 7.409 6.3546 10 10.5z" fill="#bd5e36"/><path d="m130.5 15.5c.321 1.5481 1.321 2.2148 3 2-1.889.822-3.889 1.6553-6 2.5 6.972 1.1648 13.972 1.4981 21 1 1.41-.3678 2.41-1.2011 3-2.5-5.292-.9948-10.625-1.3282-16-1 2.646-.6644 5.479-.9978 8.5-1 3.433.0967 6.6.7634 9.5 2-2.912 3.9785-6.912 5.6452-12 5 .256 2.2925-.077 4.4592-1 6.5-4.339 1.6342-8.673 3.1342-13 4.5.98 1.4814 2.147 2.8147 3.5 4 .667 1 .667 2 0 3-4.623-7.6601-10.623-8.9935-18-4 .59 5.5443-1.243 10.0443-5.5 13.5-5.333 1.6667-10.6667 3.3333-16 5-1.4063 2.4493-3.4063 3.4493-6 3 1.5153-1.7258 3.1819-3.2258 5-4.5-1.6392-1.416-2.4725-3.0826-2.5-5 1.439 1.948 3.2723 3.2814 5.5 4 6.0296-1.2813 11.53-3.6146 16.5-7 .333-3.3333.667-6.6667 1-10 .833-.8333 1.667-1.6667 2.5-2.5 8.302-1.7219 16.635-3.3886 25-5 1.076-1.7261 1.243-3.5594.5-5.5-2.578-.6414-5.245-.9748-8-1-7.011-1.1169-12.177 1.3831-15.5 7.5-7.617 2.5671-14.95 5.7338-22 9.5-1.146-.6449-2.146-1.4783-3-2.5-1-.6667-2-.6667-3 0-1.5303 2.352-3.1969 4.5187-5 6.5-.3333-.6667-.6667-1.3333-1-2 1.4447-2.6182 3.1113-5.1182 5-7.5 3.5292-2.0603 6.8626-4.227 10-6.5.904.709 1.2373 1.709 1 3-1.5188.9098-3.1854 1.7432-5 2.5-.8366 1.0113-1.17 2.1779-1 3.5 5.6511-1.7166 11.318-3.5499 17-5.5-2.982-.498-5.982-.6646-9-.5-.1107-.6174-.444-1.1174-1-1.5 2.42-.2904 4.754-.7904 7-1.5 5.736-.8681 10.736-3.3681 15-7.5 3.236-1.7862 6.57-3.2862 10-4.5z" fill="#2a1813" opacity=".991"/><path d="m133.5 17.5h2c5.375-.3282 10.708.0052 16 1-.59 1.2989-1.59 2.1322-3 2.5-7.028.4981-14.028.1648-21-1 2.111-.8447 4.111-1.678 6-2.5z" fill="#b95c35"/><path d="m54.5 24.5c4.9512 8.2846 11.6179 14.9512 20 20 1.2979 1.5517.9646 2.5517-1 3-5.8786-3.3695-11.0452-7.7028-15.5-13-2.0347-3.0612-3.2014-6.3945-3.5-10z" fill="#ece3c7" opacity=".549"/><path d="m97.5 30.5h2c3.018-.1646 6.018.002 9 .5-5.682 1.9501-11.3489 3.7834-17 5.5-.17-1.3221.1634-2.4887 1-3.5 1.8146-.7568 3.4812-1.5902 5-2.5z" fill="#b35934"/><path d="m240.5 37.5c-3.221 4.276-7.221 7.6093-12 10-1.333 0-2-.6667-2-2 4.941-2.2946 9.608-4.9613 14-8z" fill="#e5dec4" opacity=".477"/><path d="m200.5 18.5c1.96 1.6563 3.96 3.323 6 5 .835 3.8237 2.835 6.9904 6 9.5 4.25.7971 7.917 2.6305 11 5.5.764 2.5177 1.764 4.851 3 7 0 1.3333.667 2 2 2-.131.7389.036 1.4056.5 2 4.018 3.0209 7.684 6.3542 11 10 .261 4.0104-.573 7.8437-2.5 11.5 3.36 7.5935 3.693 15.2602 1 23 2.391 12.997-1.276 23.83-11 32.5-2.21.394-3.543 1.727-4 4-5.357-5.197-11.357-9.697-18-13.5-9.748-3.805-19.414-7.805-29-12-15.45-4.242-31.117-7.4083-47-9.5-3.819-.6656-7.819-.9989-12-1-6.565-.1385-12.899.5282-19 2-5.5616.6097-10.8949 2.1097-16 4.5-1.9257.422-2.9257 1.589-3 3.5-1.6959-1.629-2.6959-1.296-3 1-.9916-.172-1.6583.162-2 1-2.2638.719-4.5971 1.052-7 1-2.9264-3.788-5.7597-7.788-8.5-12-2.3883-7.7216-1.8883-15.2216 1.5-22.5-1.2922-3.2208-1.1255-6.3874.5-9.5 2.3789-3.8802 5.5456-6.8802 9.5-9 1.5174-.0106 2.6841-.6772 3.5-2 .5182-2.5226 1.8515-4.5226 4-6 .6667 1.3333 1.3333 2.6667 2 4 .21-1.5581.71-2.8915 1.5-4v5c-2.6142-.2229-4.2809.9438-5 3.5-5.7959 2.8524-10.1292 7.0191-13 12.5.9193 2.9612 2.9193 4.1279 6 3.5 5.3282-2.6641 10.6615-5.3308 16-8 4.3333-.3333 8.6667-.6667 13-1 2.019-.4497 3.852-1.283 5.5-2.5.483.948.649 1.948.5 3 6.986-2.6637 13.986-2.6637 21 0 4.516-1.7795 9.183-2.2795 14-1.5 1.656 1.8294 3.656 3.1628 6 4 4.655.4992 9.321.6658 14 .5.763.7679 1.763 1.2679 3 1.5-.228.3988-.562.5654-1 .5-4.207-.1626-8.374.1707-12.5 1-4.813-1.742-9.48-3.742-14-6-6.389 2.2833-12.889 2.6166-19.5 1-5.33.53-10.664 1.03-16 1.5-1.2788 4.7151-2.1121 9.5484-2.5 14.5-.4992-4.6548-.6658-9.3215-.5-14-6.0723-.7228-11.5723.6105-16.5 4-.5502 4.5701-1.7168 4.9034-3.5 1-3.2174 1.2598-6.3841 2.5931-9.5 4-.7112 1.8668-.2112 3.3668 1.5 4.5-.4574.414-.7907.914-1 1.5 2.3606 3.3878 4.1939 7.0544 5.5 11 2.0125 3.3458 4.6792 6.0125 8 8 10.3987-4.8084 21.232-7.475 32.5-8h1c.111.6174.444 1.1174 1 1.5 9.339.4827 18.672.9827 28 1.5-.309-4.7675.191-9.4342 1.5-14 .499 4.9889.666 9.9889.5 15 16.672 2.5846 33.005 6.585 49 12 2.767 2.104 5.767 3.771 9 5 2.114 2.287 4.614 3.954 7.5 5 2.568-.451 4.902-1.451 7-3-.425 1.555-1.258 3.055-2.5 4.5 2.047 3.046 4.88 4.88 8.5 5.5 1.662.112 2.829-.554 3.5-2-2.15-2.651-4.483-5.151-7-7.5.667-.667 1.333-.667 2 0 1.85 2.018 3.85 3.851 6 5.5 6.192-6.788 8.692-14.788 7.5-24-.374-.9162-.874-1.7496-1.5-2.5-5.256-2.4646-10.589-4.6313-16-6.5-.763-.7679-1.763-1.2679-3-1.5.594-.4643 1.261-.631 2-.5 1.788.2852 3.455-.0481 5-1-3.096-4.1927-5.096-8.8593-6-14 1.114-2.742 2.114-5.5754 3-8.5-.085-1.1074-.419-2.1074-1-3 2.982-.0971 5.649-.9304 8-2.5.162-2.0273-.005-4.0273-.5-6-2.437-2.8765-3.77-6.2098-4-10-1.995-2.247-4.495-3.247-7.5-3-.221 2.8919-1.054 5.5585-2.5 8 0-2.6667 0-5.3333 0-8-3.621-4.4095-7.121-8.9095-10.5-13.5-2.53-1.4217-5.197-1.755-8-1 2.833 2.8333 5.667 5.6667 8.5 8.5.678 2.0976.511 4.0976-.5 6-.667-1-1.333-2-2-3-2.591-4.1454-5.924-7.6454-10-10.5-2.53-1.4217-5.197-1.755-8-1 6.933 5.4807 6.6 10.1474-1 14-5.863.587-11.53 1.9203-17 4-3.992 2.3356-5.825 5.8356-5.5 10.5-.893-3.4162-.393-6.5828 1.5-9.5 6.188-4.5309 13.188-6.8642 21-7 4.116-1.3992 4.949-3.8992 2.5-7.5-3.426-2.918-6.259-6.2514-8.5-10-2.839 1.9203-5.839 3.5869-9 5-1.196-.3457-1.196-.8457 0-1.5 1.832-.7485 3.499-1.7485 5-3-5.648.0299-11.315.1966-17 .5-2.9-1.2366-6.067-1.9033-9.5-2-3.021.0022-5.854.3356-8.5 1-.667 0-1.333 0-2 0-1.679.2148-2.679-.4519-3-2 3.376-1.1081 6.876-1.7748 10.5-2 11.82.7362 23.653 1.2362 35.5 1.5l6 3c5.991.4995 11.991.6662 18 .5z" fill="#221512"/><path d="m61.5 78.5c1.3221-.17 2.4887.1634 3.5 1 2.2246 3.7807 3.8913 7.7807 5 12 1.6431 2.9099 3.6431 5.5766 6 8 .7494 1.135.5827 2.135-.5 3-1.9325 1.02-3.9325 1.187-6 .5-7.4438-6.5843-10.1105-14.751-8-24.5z" fill="#b85b35"/><path d="m231.5 79.5c2.792-.0479 4.625 1.2854 5.5 4 .334 2.3473.167 4.6806-.5 7-5.091.0705-9.091-1.9295-12-6 2.224-1.934 4.558-3.6006 7-5z" fill="#a2512f"/><path d="m199.5 34.5c.667 1 1.333 2 2 3-2.542 3.9743-6.209 6.3076-11 7 2.958 2.4557 5.791 5.1223 8.5 8 2.587 4.9129 1.753 9.0796-2.5 12.5-4.115 1.4802-8.115 3.1468-12 5 5.963 1.7392 11.963 3.4059 18 5 5.59 2.787 10.59 6.287 15 10.5-.739-.131-1.406.0357-2 .5 1.237.2321 2.237.7321 3 1.5-1 0-2 0-3 0 .252 2.8198-.248 5.4865-1.5 8-.16-3.7875-.826-7.4542-2-11-2.126-1.8766-4.626-2.8766-7.5-3 .009 1.8084-.491 3.4751-1.5 5 .389-4.381-1.111-7.881-4.5-10.5-7.399.1514-14.732-.6819-22-2.5-.372 6.4206-2.206 12.4206-5.5 18 1.532-5.6023 2.866-11.269 4-17-5.665-5.8516-9.998-5.185-13 2-.291-2.283.209-4.4497 1.5-6.5-.556-1.0111-1.222-1.8444-2-2.5.438.0654.772-.1012 1-.5-1.237-.2321-2.237-.7321-3-1.5 1.899-1.9634 4.233-3.4634 7-4.5 4.08-.6866 8.08-1.6866 12-3 1.623-2.0795 3.123-4.2462 4.5-6.5.359 3.1201-.808 5.6201-3.5 7.5-4.514 1.9374-9.18 3.4374-14 4.5-.333.3333-.667.6667-1 1 2.704 3.6917 6.371 5.6917 11 6 7.026-2.3979 14.026-4.8979 21-7.5 1.624-1.1171 2.624-2.6171 3-4.5-2.689-8.3345-8.355-12.8345-17-13.5 5.345-1.7918 10.678-3.7918 16-6 .88-1.3561 1.214-2.8561 1-4.5z" fill="#2b1813"/><path d="m226.5 56.5c1.338-1.6128 3.005-2.1128 5-1.5 2.73 1.8781 4.397 4.3781 5 7.5-1.361 4.174-2.361 8.5073-3 13-8.353 8.1046-13.353 6.4379-15-5 .276-1.8302.943-3.4968 2-5 2.057-1.769 3.89-3.769 5.5-6 .483-.948.649-1.948.5-3z" fill="#b35934"/><path d="m161.5 67.5c.778.6556 1.444 1.4889 2 2.5-1.291 2.0503-1.791 4.217-1.5 6.5 3.002-7.185 7.335-7.8516 13-2-1.134 5.731-2.468 11.3977-4 17 3.294-5.5794 5.128-11.5794 5.5-18 7.268 1.8181 14.601 2.6514 22 2.5 3.389 2.619 4.889 6.119 4.5 10.5 1.009-1.5249 1.509-3.1916 1.5-5 2.874.1234 5.374 1.1234 7.5 3 1.174 3.5458 1.84 7.2125 2 11 1.252-2.5135 1.752-5.1802 1.5-8h3c5.411 1.8687 10.744 4.0354 16 6.5.626.7504 1.126 1.5838 1.5 2.5 1.192 9.212-1.308 17.212-7.5 24-2.15-1.649-4.15-3.482-6-5.5-.667-.667-1.333-.667-2 0 2.517 2.349 4.85 4.849 7 7.5-.671 1.446-1.838 2.112-3.5 2-3.62-.62-6.453-2.454-8.5-5.5 1.242-1.445 2.075-2.945 2.5-4.5-2.098 1.549-4.432 2.549-7 3-2.886-1.046-5.386-2.713-7.5-5-2.845-3.012-5.512-6.179-8-9.5 1.97-3.0987 3.47-6.2654 4.5-9.5-3.369 3.0816-5.369 6.748-6 11 2.49 1.447 2.657 2.447.5 3-15.995-5.415-32.328-9.4154-49-12 .166-5.0111-.001-10.0111-.5-15-1.309 4.5658-1.809 9.2325-1.5 14-9.328-.5173-18.661-1.0173-28-1.5-.556-.3826-.889-.8826-1-1.5.227-4.5982-.606-8.9316-2.5-13-.02 4.3681.48 8.7014 1.5 13-11.268.525-22.1013 3.1916-32.5 8-3.3208-1.9875-5.9875-4.6542-8-8-1.3061-3.9456-3.1394-7.6122-5.5-11 .2093-.586.5426-1.086 1-1.5-1.7112-1.1332-2.2112-2.6332-1.5-4.5 3.1159-1.4069 6.2826-2.7402 9.5-4 1.7832 3.9034 2.9498 3.5701 3.5-1 4.9277-3.3895 10.4277-4.7228 16.5-4-.1658 4.6785.0008 9.3452.5 14 .3879-4.9516 1.2212-9.7849 2.5-14.5 5.336-.47 10.67-.97 16-1.5 6.611 1.6166 13.111 1.2833 19.5-1 4.52 2.258 9.187 4.258 14 6 4.126-.8293 8.293-1.1626 12.5-1z" fill="#be5e36"/><path d="m129.5 95.5c-10.352-.1006-20.685.2327-31 1 6.101-1.4718 12.435-2.1385 19-2 4.181.0011 8.181.3344 12 1z" fill="#948977"/><path d="m114.5 91.5c-.333 0-.667 0-1 0-1.02-4.2986-1.52-8.6319-1.5-13 1.894 4.0684 2.727 8.4018 2.5 13z" fill="#61321f"/><path d="m80.5 80.5c1.928 2.1006 2.5947 4.4339 2 7-1.1348-2.2067-1.8015-4.5401-2-7z" fill="#4b271a"/><path d="m146.5 72.5c.597.2352.93.7352 1 1.5-.5 1.5-1 3-1.5 4.5-.678-2.0976-.511-4.0976.5-6z" fill="#281611"/><path d="m128.5 71.5c1.306 3.1868 1.306 6.5202 0 10-1.166-3.3369-1.166-6.6702 0-10z" fill="#703923"/><path d="m128.5 46.5c1.025.3966 1.192 1.0632.5 2-1.167 1.1667-2.333 2.3333-3.5 3.5-6.662 2.3278-13.328 4.3278-20 6 1.051-1.3848 2.384-2.3848 4-3 4.08-.6866 8.08-1.6866 12-3 3.095-.9354 5.429-2.7687 7-5.5z" fill="#341c15"/><path d="m226.5 56.5c-2.351 1.5696-5.018 2.4029-8 2.5.581.8926.915 1.8926 1 3-.886 2.9246-1.886 5.758-3 8.5.904 5.1407 2.904 9.8073 6 14-1.545.9519-3.212 1.2852-5 1-4.41-4.213-9.41-7.713-15-10.5-6.037-1.5941-12.037-3.2608-18-5 3.885-1.8532 7.885-3.5198 12-5 4.253-3.4204 5.087-7.5871 2.5-12.5-2.709-2.8777-5.542-5.5443-8.5-8 4.791-.6924 8.458-3.0257 11-7 1.011-1.9024 1.178-3.9024.5-6-2.833-2.8333-5.667-5.6667-8.5-8.5 2.803-.755 5.47-.4217 8 1 3.379 4.5905 6.879 9.0905 10.5 13.5v8c1.446-2.4415 2.279-5.1081 2.5-8 3.005-.247 5.505.753 7.5 3 .23 3.7902 1.563 7.1235 4 10 .495 1.9727.662 3.9727.5 6z" fill="#bc5e36"/><path d="m213.5 52.5c.996-.0858 1.829.2476 2.5 1 .309 1.2659.809 2.4326 1.5 3.5-3.002.2286-4.335-1.2714-4-4.5z" fill="#381e16"/><path d="m129.5 95.5c15.883 2.0917 31.55 5.258 47 9.5 9.586 4.195 19.252 8.195 29 12 6.643 3.803 12.643 8.303 18 13.5-.835 5.688-2.835 11.021-6 16 2.024 2.19 3.857 4.523 5.5 7 .667 5 .667 10 0 15-5.343 4.223-5.843 8.89-1.5 14v3c-1 .333-1.667 1-2 2-.333.667-.667 1.333-1 2-1.718 1.723-3.051 3.723-4 6-1.372 1.012-2.705 2.012-4 3-25.579 7.75-51.246 15.083-77 22-5.084-1.194-10.084-2.694-15-4.5-15.518-7.258-31.1847-14.258-47-21-2.6463-1.96-2.6463-3.96 0-6-.7865-2.099-1.1199-4.266-1-6.5-.1309-.876.2025-1.543 1-2 2.0543 1.694 4.3877 2.861 7 3.5 19.9926 3.017 39.993 2.85 60-.5-6.394-6.561-6.56-13.227-.5-20 .333-3 .667-6 1-9 1.6-1.366 3.433-2.366 5.5-3-.698-6.129 1.969-9.295 8-9.5 2.31-1.637 3.81-3.804 4.5-6.5.216-7.536.716-15.036 1.5-22.5-3.285-4.288-6.952-8.288-11-12-1-.667-2-.667-3 0-2.917 3.201-5.917 3.201-9 0-3.985-1.3339-6.652-.001-8 4-1.333.667-2.667 1.333-4 2-5.005.082-10.005.082-15 0-2.091 2.103-4.591 3.269-7.5 3.5-5.5618-2.31-11.3951-3.477-17.5-3.5-1.4839-.662-2.8172-1.496-4-2.5.0743-1.911 1.0743-3.078 3-3.5 5.1051-2.3903 10.4384-3.8903 16-4.5 10.315-.7673 20.648-1.1006 31-1z" fill="#fcf1d2"/><path d="m210.5 98.5c.997-.0299 1.664.4701 2 1.5-1.356 1.567-2.023 3.4-2 5.5-1 0-2 0-3 0 .543-2.538 1.543-4.872 3-7z" fill="#361e16"/><path d="m70.5 182.5c-.7679.763-1.2679 1.763-1.5 3-.6708-.752-1.5041-1.086-2.5-1-.4321-1.21-1.0987-2.21-2-3 1.1769-4.373 2.5103-8.706 4-13-.3457-1.349-.679-2.683-1-4 .4597-2.595-.8737-4.262-4-5-5.3563-9.96-5.1896-19.96.5-30 5.1345-5.938 8.9678-12.604 11.5-20 .9345-1.068 1.2678-2.401 1-4 .3041-2.296 1.3041-2.629 3-1 1.1828 1.004 2.5161 1.838 4 2.5 6.1049.023 11.9382 1.19 17.5 3.5 2.909-.231 5.409-1.397 7.5-3.5 4.995.082 9.995.082 15 0 1.333-.667 2.667-1.333 4-2 1.348-4.001 4.015-5.3339 8-4 3.083 3.201 6.083 3.201 9 0 1-.667 2-.667 3 0 4.048 3.712 7.715 7.712 11 12-.784 7.464-1.284 14.964-1.5 22.5-.69 2.696-2.19 4.863-4.5 6.5-6.031.205-8.698 3.371-8 9.5-2.067.634-3.9 1.634-5.5 3-.333 3-.667 6-1 9-6.06 6.773-5.894 13.439.5 20-20.007 3.35-40.0074 3.517-60 .5-2.6123-.639-4.9457-1.806-7-3.5-.7975.457-1.1309 1.124-1 2z" fill="#151310" opacity=".95"/><path d="m74.5 106.5c.3417-.838 1.0084-1.172 2-1 .2678 1.599-.0655 2.932-1 4 .2373-1.291-.096-2.291-1-3z" fill="#c5c0aa" opacity=".588"/><path d="m131.5 104.5c4.966 1.227 9.966 2.394 15 3.5 2.333 1.667 4.667 3.333 7 5 1.279 6.411 1.779 12.911 1.5 19.5-3 2.333-6 4.667-9 7-3.333 4.667-6.667 9.333-10 14-3.248 8.739-5.414 17.739-6.5 27-12.204 3.233-24.537 3.733-37 1.5-6.687-1.506-13.3537-3.006-20-4.5.2609-3.842-.4058-7.509-2-11 .3333-.333.6667-.667 1-1 6.8724 4.102 14.2057 7.102 22 9 6.503-4.086 13.17-7.919 20-11.5-2.164-.914-4.164-2.081-6-3.5-5.397 7.187-12.397 9.687-21 7.5-9.591-8.589-10.2576-17.589-2-27-2.283-.291-4.4497.209-6.5 1.5-1.9439-.939-3.6106-2.273-5-4 .9054 8.702 2.4054 17.369 4.5 26-.2332 1.432-.8999 1.932-2 1.5-12.0179-8.212-15.1846-19.046-9.5-32.5 4.6667-6.667 9.3333-13.333 14-20 5.9794-1.571 11.8127-1.071 17.5 1.5 2.667.667 5.333.667 8 0 1.602-2.111 3.602-3.611 6-4.5 5.814 2.674 11.48 2.507 17-.5 1.383-1.271 2.383-2.771 3-4.5z" fill="#f0c9a5"/><path d="m133.5 108.5c3.67-.173 6.17 1.493 7.5 5 .667 3.667.667 7.333 0 11-.465 1.431-1.299 2.597-2.5 3.5-9.43 2.04-13.263-1.793-11.5-11.5 1.305-3.461 3.471-6.128 6.5-8z" fill="#0f0d0b"/><path d="m203.5 112.5c-3.233-1.229-6.233-2.896-9-5 2.157-.553 1.99-1.553-.5-3 .631-4.252 2.631-7.9184 6-11-1.03 3.2346-2.53 6.4013-4.5 9.5 2.488 3.321 5.155 6.488 8 9.5z" fill="#7e3f26"/><path d="m227.5 126.5c1.754 7.218.754 14.052-3 20.5 2.144 2.453 3.644 5.286 4.5 8.5.499 4.655.666 9.321.5 14-1.88-.271-3.213.396-4 2-1.487 3.616-2.82 7.283-4 11-4.343-5.11-3.843-9.777 1.5-14 .667-5 .667-10 0-15-1.643-2.477-3.476-4.81-5.5-7 3.165-4.979 5.165-10.312 6-16 .457-2.273 1.79-3.606 4-4z" fill="#070605" opacity=".85"/><path d="m63.5 159.5c3.1263.738 4.4597 2.405 4 5-1.3333-1.667-2.6667-3.333-4-5z" fill="#a7a18e" opacity=".675"/><path d="m225.5 171.5c6.224 1.888 10.557 5.888 13 12-1.165 1.084-2.498 1.917-4 2.5-4.42.768-8.753.602-13-.5 0-1 0-2 0-3 1.18-3.717 2.513-7.384 4-11z" fill="#b85b35"/><path d="m64.5 181.5c.9013.79 1.5679 1.79 2 3-.6324 2.243-1.9658 3.909-4 5-.3039-.65-.6373-1.317-1-2 1.3624-1.927 2.3624-3.927 3-6z" fill="#5b2f1c" opacity=".78"/><path d="m266.5 248.5c.677 8.158-2.99 11.658-11 10.5-1.859-3.426-2.693-3.26-2.5.5 2.683 1.075 2.849 2.075.5 3-5.926.919-11.426 2.919-16.5 6-3.327-2.481-6.827-2.647-10.5-.5-1.196.654-1.196 1.154 0 1.5 2.666-1.238 5.332-1.238 8 0-7.059 5.191-14.393 9.857-22 14-16.125 8.567-33.125 14.567-51 18-11.676.957-23.009-.543-34-4.5-2.16-1.332-4.16-2.832-6-4.5-.929-.815-1.929-1.648-3-2.5 8.349-.963 16.683-1.963 25-3-14.025-.105-28.025.229-42 1-6.2684-1.201-12.2684-3.201-18-6-.8802-1.356-1.2135-2.856-1-4.5 3.8704-.197 7.5371-1.031 11-2.5-5.972.406-11.972.406-18 0-.63-1.892-1.63-3.559-3-5-4.2495-2.374-8.4162-4.874-12.5-7.5-.3408-2.687-1.6742-4.687-4-6-.7358-3.092-.5691-6.092.5-9 1.3381-1.613 3.0048-2.113 5-1.5 1.2787 3.737 3.612 6.57 7 8.5-.3039.65-.6373 1.317-1 2 3.6073.989 7.274 1.323 11 1 17.0272.628 33.694-1.539 50-6.5 14.13-5.209 28.13-10.709 42-16.5 7.743-4.87 15.743-9.204 24-13-.16 1.699.006 3.366.5 5-.269-6.301 2.565-10.468 8.5-12.5 3.415-4.107 7.081-8.107 11-12 2.612-.741 4.278.259 5 3 1.813.614 2.147.281 1-1 .788-3.076 1.288-6.242 1.5-9.5 2.507-1.655 5.341-2.489 8.5-2.5-1.757-1.359-3.757-1.526-6-.5-2.193-.219-4.193-.885-6-2 .333-.667.667-1.333 1-2 4.346-.166 8.679.001 13 .5 4.615 1.077 6.115 3.91 4.5 8.5-1.085.793-2.252 1.46-3.5 2-.777 2.281-1.777 4.448-3 6.5-1.293.49-2.627.657-4 .5.149 1.052-.017 2.052-.5 3-4.064 3.808-7.897 7.808-11.5 12-1.189.929-2.522 1.262-4 1 .111.617.444 1.117 1 1.5-9.788 11.458-20.455 21.792-32 31-21.191 7.381-42.858 13.048-65 17-.333.333-.667.667-1 1 24.831-2.875 48.831-9.209 72-19 5.721-4.388 10.721-9.388 15-15 3.148-2.695 6.815-4.028 11-4-1.711-1.133-2.211-2.633-1.5-4.5 3.138-3.654 6.638-6.654 10.5-9-.149-1.052.017-2.052.5-3 2.589-1.711 5.089-3.545 7.5-5.5 2.667-.333 5.333-.667 8-1-4.046-1.471-4.879-3.971-2.5-7.5 1.892-.63 3.559-1.63 5-3 .059-3.322 1.226-6.156 3.5-8.5-1.395-2.075-1.062-3.908 1-5.5-1.333-1.12-1.833-2.453-1.5-4 8.18 3.418 15.513 8.085 22 14 2.399 2.62 4.066 5.62 5 9-.54 4.767-.873 9.434-1 14-2.678 5.539-4.511 11.373-5.5 17.5-.108 4.433 1.225 8.267 4 11.5z" fill="#bf5e36"/><path d="m49.5 233.5c-5.9713-2.304-8.638-6.637-8-13 5.0999-4.761 10.7666-8.761 17-12-1.839-2.027-2.339-4.36-1.5-7 .6891.857 1.5224 1.523 2.5 2 .7716-2.635.9382-5.301.5-8 1.0616-1.399 2.395-2.399 4-3 1.7007 2.263 3.8674 4.097 6.5 5.5 21.7724 9.553 43.772 18.553 66 27 2.628 1.626 4.961 3.626 7 6-3.743-1.136-7.41-2.47-11-4 5.937 3.217 11.437 7.051 16.5 11.5.617.949.451 1.782-.5 2.5-8.657 2.993-17.324 5.993-26 9-10.382 3.451-21.049 4.617-32 3.5-2.0769-2.874-4.7436-5.041-8-6.5-11.2533-3.963-22.2533-8.463-33-13.5z" fill="#bf5e36"/><path d="m62.5 189.5c-1.4488 1.664-3.4488 2.498-6 2.5 1.658.725 2.158 1.892 1.5 3.5-1.3712 1.541-2.8712 2.875-4.5 4 .7026-2.216 2.0359-4.049 4-5.5-.948-.483-1.948-.649-3-.5 0-1 0-2 0-3 2.7372.099 5.4039-.235 8-1z" fill="#5c301e" opacity=".694"/><path d="m45.5 213.5c-1.3333 2-3 3.667-5 5 .6667-2.667 2.3333-4.333 5-5z" fill="#834629" opacity=".427"/><path d="m80.5 221.5c1.5927-1.367 2.9261-1.034 4 1-.3333.333-.6667.667-1 1-1.0178-.693-2.0178-1.359-3-2z" fill="#492619"/><path d="m210.5 221.5c-1 0-2 0-3 0-.16-1.699.006-3.366.5-5 .366 1.952 1.199 3.618 2.5 5z" fill="#291711"/><path d="m54.5 222.5c4.0955-1.489 8.0955-.989 12 1.5-4.0507-.006-8.0507-.506-12-1.5z" fill="#5d2f1e"/><path d="m229.5 169.5c5.067 2.231 9.067 5.731 12 10.5 11.19 3.174 20.69 9.007 28.5 17.5 3.526 6.439 4.36 13.106 2.5 20-4.698 7.113-6.365 14.78-5 23 .934 1.068 1.268 2.401 1 4 .821 3.054.821 6.054 0 9-.67-1.791-1.337-3.458-2-5-2.775-3.233-4.108-7.067-4-11.5.989-6.127 2.822-11.961 5.5-17.5.127-4.566.46-9.233 1-14-.934-3.38-2.601-6.38-5-9-6.487-5.915-13.82-10.582-22-14-.333 1.547.167 2.88 1.5 4-2.062 1.592-2.395 3.425-1 5.5-2.274 2.344-3.441 5.178-3.5 8.5-1.441 1.37-3.108 2.37-5 3-2.379 3.529-1.546 6.029 2.5 7.5-2.667.333-5.333.667-8 1-2.411 1.955-4.911 3.789-7.5 5.5-.483.948-.649 1.948-.5 3-3.862 2.346-7.362 5.346-10.5 9-.711 1.867-.211 3.367 1.5 4.5-4.185-.028-7.852 1.305-11 4-4.279 5.612-9.279 10.612-15 15-23.169 9.791-47.169 16.125-72 19 .333-.333.667-.667 1-1 22.142-3.952 43.809-9.619 65-17 11.545-9.208 22.212-19.542 32-31-.556-.383-.889-.883-1-1.5 1.478.262 2.811-.071 4-1 3.603-4.192 7.436-8.192 11.5-12 .483-.948.649-1.948.5-3 1.373.157 2.707-.01 4-.5 1.223-2.052 2.223-4.219 3-6.5 1.248-.54 2.415-1.207 3.5-2 1.615-4.59.115-7.423-4.5-8.5-4.321-.499-8.654-.666-13-.5.333-1 1-1.667 2-2 4.247 1.102 8.58 1.268 13 .5 1.502-.583 2.835-1.416 4-2.5-2.443-6.112-6.776-10.112-13-12 .787-1.604 2.12-2.271 4-2z" fill="#291712"/><path d="m252.5 221.5c1.764-1.212 3.43-.879 5 1-1.692.701-3.358.367-5-1z" fill="#653320"/><path d="m40.5 218.5c-.1716.992.1618 1.658 1 2-.638 6.363 2.0287 10.696 8 13-.7389-.131-1.4056.036-2 .5 2.0444.498 3.3777 1.665 4 3.5-7.2813-1.622-11.948-5.955-14-13-.0328-2.602.9672-4.602 3-6z" fill="#422418"/><path d="m272.5 217.5c-1.19 5.071-2.69 10.071-4.5 15-.497 2.646-.664 5.313-.5 8-1.365-8.22.302-15.887 5-23z" fill="#5e311e" opacity=".506"/><path d="m129.5 231.5c4.306 2.488 8.639 4.988 13 7.5-5.258-.96-9.591-3.46-13-7.5z" fill="#6f3822"/><path d="m51.5 237.5c5.8698.151 7.2031 2.484 4 7 1.2969-3.726-.0364-6.059-4-7z" fill="#714227" opacity=".835"/><path d="m70.5 182.5c-.1199 2.234.2135 4.401 1 6.5-2.6463 2.04-2.6463 4.04 0 6 15.8153 6.742 31.482 13.742 47 21 4.916 1.806 9.916 3.306 15 4.5 25.754-6.917 51.421-14.25 77-22 1.238.31 1.238.81 0 1.5-24.092 7.774-48.425 14.774-73 21-1.333.667-1.333 1.333 0 2 7.163 3.464 12.163 8.964 15 16.5 14.266-6.132 27.933-13.299 41-21.5 8.718-5.97 15.718-13.47 21-22.5.949-2.277 2.282-4.277 4-6 1.807 1.115 3.807 1.781 6 2 2.243-1.026 4.243-.859 6 .5-3.159.011-5.993.845-8.5 2.5-.212 3.258-.712 6.424-1.5 9.5 1.147 1.281.813 1.614-1 1-.722-2.741-2.388-3.741-5-3-3.919 3.893-7.585 7.893-11 12-5.935 2.032-8.769 6.199-8.5 12.5-.494-1.634-.66-3.301-.5-5-8.257 3.796-16.257 8.13-24 13-13.87 5.791-27.87 11.291-42 16.5-16.306 4.961-32.9728 7.128-50 6.5-3.3862-.635-6.7196-1.635-10-3-3.388-1.93-5.7213-4.763-7-8.5-1.9952-.613-3.6619-.113-5 1.5-.6098-.891-.9431-1.891-1-3 3.2031-4.516 1.8698-6.849-4-7-.6223-1.835-1.9556-3.002-4-3.5.5944-.464 1.2611-.631 2-.5 10.7467 5.037 21.7467 9.537 33 13.5 3.2564 1.459 5.9231 3.626 8 6.5 10.951 1.117 21.618-.049 32-3.5 8.676-3.007 17.343-6.007 26-9 .951-.718 1.117-1.551.5-2.5-5.063-4.449-10.563-8.283-16.5-11.5 3.59 1.53 7.257 2.864 11 4-2.039-2.374-4.372-4.374-7-6-22.228-8.447-44.2276-17.447-66-27-2.6326-1.403-4.7993-3.237-6.5-5.5-1.605.601-2.9384 1.601-4 3 .4382 2.699.2716 5.365-.5 8-.9776-.477-1.8109-1.143-2.5-2-.839 2.64-.339 4.973 1.5 7-6.2334 3.239-11.9001 7.239-17 12-.8382-.342-1.1716-1.008-1-2 2-1.333 3.6667-3 5-5 2.1563-2.341 4.6563-4.341 7.5-6-.6475-2.79-.4808-5.456.5-8 1.6288-1.125 3.1288-2.459 4.5-4 .658-1.608.158-2.775-1.5-3.5 2.5512-.002 4.5512-.836 6-2.5 2.0342-1.091 3.3676-2.757 4-5 .9959-.086 1.8292.248 2.5 1 .2321-1.237.7321-2.237 1.5-3z" fill="#231511"/><path d="m69.5 213.5c.06-.543.3933-.876 1-1 4.8164 1.655 9.8164 2.488 15 2.5-2.0873.792-3.9207 1.959-5.5 3.5-3.5552-1.573-7.0552-3.239-10.5-5z" fill="#432419"/><path d="m214.5 195.5c-5.282 9.03-12.282 16.53-21 22.5-13.067 8.201-26.734 15.368-41 21.5-2.837-7.536-7.837-13.036-15-16.5-1.333-.667-1.333-1.333 0-2 24.575-6.226 48.908-13.226 73-21 1.238-.69 1.238-1.19 0-1.5 1.295-.988 2.628-1.988 4-3z" fill="#be5e36"/><path d="m119.5 235.5c6.725-.498 12.725 1.669 18 6.5-5.814-2.394-11.814-4.561-18-6.5z" fill="#3b2017"/><path d="m88.5 244.5c2.5679-1.143 5.2346-.976 8 .5-2.9633 1.729-5.63 1.562-8-.5z" fill="#552b1c"/><path d="m66.5 243.5c8.0227 1.843 15.0227 5.51 21 11-.5.333-1 .667-1.5 1-5.6796-.416-11.1796-1.582-16.5-3.5-2.6252-2.196-3.6252-5.03-3-8.5z" fill="#b95b35"/><path d="m102.5 245.5c2.855-1.303 5.855-1.303 9 0-2.973 1.009-5.973 1.009-9 0z" fill="#6c3722"/><path d="m268.5 244.5c4.562 5.753 3.895 10.919-2 15.5-4.426 2.529-9.092 4.362-14 5.5-7.029 1.682-13.362 4.682-19 9-8.229 6.284-17.229 11.284-27 15 1.773-1.392 3.773-2.559 6-3.5 1.274-.977 1.274-1.811 0-2.5 7.607-4.143 14.941-8.809 22-14-2.668-1.238-5.334-1.238-8 0-1.196-.346-1.196-.846 0-1.5 3.673-2.147 7.173-1.981 10.5.5 5.074-3.081 10.574-5.081 16.5-6 2.349-.925 2.183-1.925-.5-3-.193-3.76.641-3.926 2.5-.5 8.01 1.158 11.677-2.342 11-10.5.663 1.542 1.33 3.209 2 5 .821-2.946.821-5.946 0-9z" fill="#371f16"/><path d="m55.5 244.5c.0569 1.109.3902 2.109 1 3-1.0691 2.908-1.2358 5.908-.5 9 2.3258 1.313 3.6592 3.313 4 6 4.0838 2.626 8.2505 5.126 12.5 7.5 1.37 1.441 2.37 3.108 3 5 6.028.406 12.028.406 18 0-3.4629 1.469-7.1296 2.303-11 2.5-.2135 1.644.1198 3.144 1 4.5 5.7316 2.799 11.7316 4.799 18 6 13.975-.771 27.975-1.105 42-1-8.317 1.037-16.651 2.037-25 3 1.071.852 2.071 1.685 3 2.5-1.333 0-2 .667-2 2-1.934-.61-3.601-1.61-5-3-5.801-1.182-11.801-1.848-18-2-3.733-1.911-7.733-3.244-12-4-1.4217-.209-2.755-.709-4-1.5-1.0853-2.172-2.4186-4.172-4-6-3.862-3.678-8.1953-6.845-13-9.5-1.5522-2.612-3.8855-3.945-7-4-6.1536-6.504-6.4869-13.171-1-20z" fill="#301b15"/><path d="m68.5 254.5c3.2804 1.365 6.6138 2.365 10 3-3.726.323-7.3927-.011-11-1 .3627-.683.6961-1.35 1-2z" fill="#713923"/><path d="m56.5 264.5c3.1145.055 5.4478 1.388 7 4-2.6272.592-5.2938.925-8 1 .1287-1.716.462-3.383 1-5z" fill="#f9edce" opacity=".585"/><path d="m252.5 265.5c-6.143 3.237-12.476 6.237-19 9 5.638-4.318 11.971-7.318 19-9z" fill="#6d3a23" opacity=".318"/><path d="m184.5 266.5c.739-.131 1.406.036 2 .5-1.708 2.681-4.042 4.015-7 4 2.118-1.049 3.784-2.549 5-4.5z" fill="#532b1c"/><path d="m84.5 285.5c4.267.756 8.267 2.089 12 4-4.4155-.361-8.4155-1.694-12-4z" fill="#6b3923" opacity=".824"/><path d="m148.5 286.5c2.567 1.25 5.233 2.417 8 3.5-3.877 1.216-6.543.049-8-3.5z" fill="#472519"/><path d="m96.5 289.5c6.199.152 12.199.818 18 2-6.262.395-12.262-.272-18-2z" fill="#6d3a23" opacity=".214"/><path d="m206.5 289.5c-12.817 7.163-26.484 12.163-41 15 0-.333 0-.667 0-1 4.827-.441 9.493-1.607 14-3.5 9.032-3.52 18.032-7.02 27-10.5z" fill="#6c3922" opacity=".278"/><path d="m212.5 283.5c1.274.689 1.274 1.523 0 2.5-2.227.941-4.227 2.108-6 3.5-8.968 3.48-17.968 6.98-27 10.5-4.507 1.893-9.173 3.059-14 3.5-5.344.166-10.677-.001-16-.5 4.188-.176 8.188-.676 12-1.5 17.875-3.433 34.875-9.433 51-18z" fill="#221410"/><path d="m121.5 292.5c1.84 1.668 3.84 3.168 6 4.5 10.991 3.957 22.324 5.457 34 4.5-3.812.824-7.812 1.324-12 1.5 5.323.499 10.656.666 16 .5v1c-11.667.847-23.333-.32-35-3.5-4.358-1.172-8.025-3.339-11-6.5 0-1.333.667-2 2-2z" fill="#452519" opacity=".827"/></svg>